<svg xmlns="http://www.w3.org/2000/svg" viewBox="0 0 44 44">
  <path d="M25.009 16.056c-.007 1.081.881 1.951 1.982 1.944 1.103-.007 2.001-.89 2.009-1.971s-.879-1.951-1.982-1.944c-1.101.007-2.001.89-2.009 1.971zM15 16.047c-.007 1.086.885 1.961 1.991 1.953 1.108-.007 2.011-.894 2.018-1.98s-.883-1.961-1.991-1.953c-1.106.007-2.011.893-2.018 1.98z"/>
  <path d="M39.554 22.167a1.002 1.002 0 0 0-.94-.09l-.789.331L36.999.961a1 1 0 0 0-1.948-.278c-.746 2.239-2.083 3.137-4.142 3.932a1.89 1.89 0 0 1-1.479-.031c-4.513-2.098-10.346-2.098-14.861 0-.449.21-.988.221-1.479.031-2.059-.796-3.396-1.694-4.142-3.932A.998.998 0 0 0 7.858.01C7.379.079 7.019.48 7 .963l-.794 21.458-.819-.344A1.001 1.001 0 0 0 4 23c0 14.131 4.907 21 15 21h6c10.093 0 15-6.869 15-21a1 1 0 0 0-.446-.833zM6.02 24.512l4.991 2.093h.001c2.594 1.083 4.416 3.136 4.875 5.494.562 2.838 1.302 6.656 1.812 9.381l.09.479C10.088 41.443 6.32 35.853 6.02 24.512zm18.316 16.601L24.17 42h-4.34l-.166-.887c-.511-2.731-1.253-6.557-1.815-9.398-.585-3.013-2.854-5.612-6.066-6.954l-3.605-1.512.698-18.877c1.022 1.027 2.255 1.63 3.494 2.108a3.9 3.9 0 0 0 3.042-.083c4.002-1.859 9.174-1.859 13.175 0 .94.438 2.05.468 3.043.083 1.24-.479 2.475-1.082 3.498-2.113l.726 18.867-3.637 1.526c-3.213 1.342-5.481 3.941-6.066 6.951-.562 2.845-1.304 6.67-1.815 9.402zm1.876.847l.09-.479c.51-2.726 1.25-6.543 1.812-9.385.458-2.354 2.28-4.407 4.874-5.49h.001l4.991-2.093c-.3 11.34-4.068 16.93-11.768 17.447z"/>
  <path d="M33.779 8.373a.998.998 0 0 0-1.406-.152C30.948 9.368 29.04 10 27 10a5.998 5.998 0 0 0-5 2.69A5.996 5.996 0 0 0 17 10c-2.04 0-3.948-.632-5.373-1.779a1 1 0 1 0-1.254 1.558 9.772 9.772 0 0 0 2.843 1.57A5.988 5.988 0 0 0 11 16c0 3.309 2.691 6 6 6 .495 0 .974-.067 1.434-.181-.007.002-.014.006-.022.007l2.88 2.88a.998.998 0 0 0 1.415.001l2.88-2.88c-.007-.002-.014-.006-.022-.007.461.113.94.18 1.435.18 3.309 0 6-2.691 6-6 0-1.875-.865-3.55-2.216-4.651a9.795 9.795 0 0 0 2.843-1.57 1 1 0 0 0 .152-1.406zM17 20c-2.206 0-4-1.794-4-4s1.794-4 4-4 4 1.794 4 4-1.794 4-4 4zm5 2.586l-1.627-1.627A6.05 6.05 0 0 0 22 19.31a6.05 6.05 0 0 0 1.627 1.649L22 22.586zM31 16c0 2.206-1.794 4-4 4s-4-1.794-4-4 1.794-4 4-4 4 1.794 4 4z"/>
  <circle cx="24" cy="31" r="1"/>
  <circle cx="22" cy="35" r="1"/>
  <circle cx="20" cy="31.001" r="1"/>
</svg>
