<svg viewBox="0 0 512 512" xmlns="http://www.w3.org/2000/svg">
  <g data-name="1">
    <path d="M175.13 182.78c-28 0-54.65-6.1-74.9-17.18-23.12-12.6-35.85-30.48-35.85-50.21s12.73-37.56 35.85-50.2C120.48 54.1 147.08 48 175.13 48s54.66 6.1 74.87 17.19c23.12 12.64 35.84 30.47 35.84 50.2S273.16 153 250 165.6c-20.21 11.08-46.82 17.18-74.87 17.18zm0-104.78c-22.76 0-44.82 4.92-60.5 13.5-12.87 7-20.25 15.75-20.25 23.89s7.38 16.85 20.25 23.89c15.68 8.58 37.74 13.5 60.5 13.5s44.83-4.92 60.51-13.5c12.87-7 20.24-15.75 20.24-23.89s-7.37-16.85-20.24-23.89C220 82.92 197.9 78 175.13 78z"/>
    <path d="M411.47 250.12a15 15 0 0 1-9.81-26.36c4.38-3.77 9.59-9.71 9.59-16.6 0-17.65-34.53-37.39-80.75-37.39-19.59 0-38.63 3.6-53.62 10.15a15 15 0 0 1-12-27.5c18.95-8.27 41.65-12.65 65.62-12.65 28.05 0 54.65 6.1 74.9 17.18 23.12 12.65 35.85 30.48 35.85 50.21 0 14.44-6.91 28-20 39.32a15 15 0 0 1-9.78 3.64zM175.13 372.81c-28 0-54.65-6.1-74.91-17.19-23.11-12.62-35.84-30.47-35.84-50.2v-190a15 15 0 1 1 30 0v190c0 8.14 7.38 16.84 20.24 23.88 15.69 8.59 37.74 13.51 60.51 13.51a144.42 144.42 0 0 0 44.67-6.74c2.26-.75 4.42-1.54 6.41-2.34a15 15 0 0 1 11.26 27.8c-2.6 1.06-5.39 2.08-8.28 3a174.86 174.86 0 0 1-54.06 8.28z"/>
    <path d="M270.88 239.6a15 15 0 0 1-15-15V115.39a15 15 0 1 1 30 0V224.6a15 15 0 0 1-15 15zM175.13 324.18c-28 0-54.65-6.1-74.91-17.19-23.11-12.65-35.84-30.47-35.84-50.2a15 15 0 0 1 30 0c0 17.65 34.53 37.39 80.75 37.39a144.54 144.54 0 0 0 44.67-6.73c3.22-1.07 6.29-2.24 9.1-3.48a15 15 0 1 1 12.1 27.44c-3.68 1.63-7.64 3.15-11.78 4.52a174.71 174.71 0 0 1-54.09 8.25z"/>
    <path d="M175.13 275.55c-28 0-54.65-6.1-74.91-17.19-23.11-12.65-35.84-30.47-35.84-50.2a15 15 0 1 1 30 0c0 17.65 34.53 37.39 80.75 37.39 19.07 0 37.05-3.27 52-9.45a15 15 0 1 1 11.48 27.72c-18.56 7.67-40.5 11.73-63.48 11.73zM264.32 242.25a15 15 0 0 1-12.2-23.72 17.88 17.88 0 0 0 3.76-10.37 15 15 0 1 1 30 0c0 9.77-3.14 19.13-9.34 27.81a15 15 0 0 1-12.22 6.28z"/>
    <path d="M175.13 226.92c-28 0-54.65-6.1-74.9-17.19-23.12-12.65-35.85-30.48-35.85-50.2a15 15 0 0 1 30 0c0 8.14 7.38 16.84 20.25 23.88 15.68 8.59 37.74 13.51 60.5 13.51S220 192 235.64 183.41c12.87-7 20.24-15.74 20.24-23.88a15 15 0 1 1 30 0c0 19.72-12.72 37.55-35.84 50.2-20.25 11.09-46.86 17.19-74.91 17.19zM330.5 345.55c-30.79 0-60-6.69-82.16-18.83-25.05-13.7-38.84-32.94-38.84-54.17s13.79-40.46 38.84-54.17c22.2-12.14 51.37-18.83 82.16-18.83s60 6.69 82.15 18.83c25.05 13.71 38.85 33 38.85 54.17s-13.8 40.45-38.85 54.17c-22.19 12.14-51.36 18.83-82.15 18.83zm0-116c-25.47 0-50.16 5.52-67.75 15.15-14.78 8.08-23.25 18.23-23.25 27.85s8.47 19.77 23.25 27.85c17.59 9.6 42.25 15.15 67.75 15.15s50.16-5.52 67.75-15.15c14.78-8.08 23.25-18.23 23.25-27.85s-8.5-19.77-23.25-27.85c-17.59-9.63-42.25-15.15-67.75-15.15z"/>
    <path d="M330.5 453.22c-30.79 0-60-6.68-82.16-18.83-25.05-13.7-38.84-32.94-38.84-54.17V272.55a15 15 0 0 1 30 0v107.67c0 9.62 8.47 19.77 23.25 27.86 17.59 9.62 42.28 15.14 67.75 15.14s50.16-5.52 67.75-15.14C413 400 421.5 389.84 421.5 380.22V272.55a15 15 0 1 1 30 0v107.67c0 21.23-13.8 40.47-38.85 54.17-22.19 12.15-51.36 18.83-82.15 18.83z"/>
    <path d="M330.5 399.39c-30.79 0-60-6.69-82.16-18.83-25.05-13.71-38.84-32.95-38.84-54.17a15 15 0 0 1 30 0c0 9.61 8.47 19.77 23.25 27.85 17.59 9.63 42.28 15.15 67.75 15.15s50.16-5.52 67.75-15.15C413 346.16 421.5 336 421.5 326.39a15 15 0 0 1 30 0c0 21.22-13.8 40.46-38.85 54.17-22.19 12.14-51.36 18.83-82.15 18.83zM426.25 264.17a15 15 0 0 1-15-15v-42a15 15 0 1 1 30 0v42a15 15 0 0 1-15 15z"/>
  </g>
</svg>
