<svg xmlns="http://www.w3.org/2000/svg" viewBox="0 0 633.48 633.48">
  <path d="M540.709 92.77C480.886 32.945 401.344 0 316.74 0S152.595 32.945 92.771 92.77C32.947 152.594 0 232.137 0 316.74s32.947 164.144 92.771 223.968c59.824 59.824 139.366 92.772 223.969 92.772s164.146-32.948 223.969-92.772c59.824-59.824 92.771-139.364 92.771-223.968s-32.946-164.146-92.771-223.97zM324.57 107.554l92.539-27.02 92.733 67.617 2.89 96.052-91.589 40.3-96.573-70.166V107.554zM205.126 298.659l36.385 111.981-60.048 63.582-93.034-44.109-24.951-96.114 51.208-75.133 90.44 39.793zm-84.563-53.224l2.989-99.337 92.484-65.661 93.871 27.406v105.771l-98.693 71.705-90.651-39.884zm127.166 179.978h139.443l.875-2.691 57.484 60.866-47.553 75.862H236.493l-46.018-73.414 57.254-60.623zm207.939 47.549l-62.458-66.131 35.646-109.704 89.139-39.22 52.927 77.658-26.537 95.333-88.717 42.064zm107.361-320.604l-47.449-18.172-93.288-68.021-28.707-35.505c70.119 18.851 130.037 62.849 169.444 121.698zM239.899 30.657L211.71 65.523l-99.934 70.951-41.275 15.807c39.408-58.813 99.308-102.779 169.398-121.624zM21.097 298.674l30.053 46.2 24.612 94.803-2.161 46.039C40.168 437.758 20.53 379.503 20.53 316.74c0-6.069.206-12.086.567-18.066zM190.81 584.806l54.874-10.691h143.104l54.173 10.557c-38.312 18.121-81.101 28.28-126.221 28.28-45.007-.001-87.691-10.108-125.93-28.146zm369.998-100.425l-2.321-49.462 26.087-93.723 27.797-42.729c.37 6.046.58 12.135.58 18.272 0 62.183-19.275 119.939-52.143 167.642z"/>
</svg>
